<?xml version="1.0" encoding="UTF-8" standalone="no"?><svg xmlns="http://www.w3.org/2000/svg" xmlns:xlink="http://www.w3.org/1999/xlink" contentScriptType="application/ecmascript" contentStyleType="text/css" height="831px" preserveAspectRatio="none" style="width:1182px;height:831px;background:#1E2230;" version="1.1" viewBox="0 0 1182 831" width="1182px" zoomAndPan="magnify"><defs/><g><text fill="#CFECE7" font-family="sans-serif" font-size="18" lengthAdjust="spacingAndGlyphs" textLength="575" x="302.5" y="26.708">Activity - Track Target &amp; Transmit to Sounding Rocket in Parallel</text><ellipse cx="585.5" cy="40.9531" fill="#4CAF50" rx="10" ry="10" style="stroke: none; stroke-width: 1.0;"/><rect fill="#2B3045" height="33.9688" rx="12.5" ry="12.5" style="stroke: #CFECE7; stroke-width: 1.5;" width="155" x="508" y="70.9531"/><text fill="#EAEAEA" font-family="sans-serif" font-size="12" lengthAdjust="spacingAndGlyphs" textLength="135" x="518" y="92.0918">Enter science window</text><rect fill="#2B3045" height="33.9688" rx="12.5" ry="12.5" style="stroke: #CFECE7; stroke-width: 1.5;" width="311" x="430" y="124.9219"/><text fill="#EAEAEA" font-family="sans-serif" font-size="12" lengthAdjust="spacingAndGlyphs" textLength="291" x="440" y="146.0605">Configure RF link (PLL, power, coding, Doppler)</text><rect fill="#000000" height="6" rx="2.5" ry="2.5" style="stroke: #000000; stroke-width: 1.0;" width="1161" x="10" y="178.8906"/><rect fill="#2B3045" height="395.1406" style="stroke: #5D6A87; stroke-width: 2.0;" width="263" x="22" y="195.6924"/><path d="M71,196.6924 L71,204.9893 L61,214.9893 L22,214.9893 " fill="none" style="stroke: #5D6A87; stroke-width: 2.0;"/><text fill="#CFECE7" font-family="sans-serif" font-size="14" lengthAdjust="spacingAndGlyphs" textLength="39" x="25" y="209.6875">ADCS</text><rect fill="#2B3045" height="33.9688" rx="12.5" ry="12.5" style="stroke: #CFECE7; stroke-width: 1.5;" width="200" x="44.5" y="231.9893"/><text fill="#EAEAEA" font-family="sans-serif" font-size="12" lengthAdjust="spacingAndGlyphs" textLength="180" x="54.5" y="253.1279">Fine pointing loop (10-20 Hz)</text><rect fill="#2B3045" height="33.9688" rx="12.5" ry="12.5" style="stroke: #CFECE7; stroke-width: 1.5;" width="179" x="55" y="357.958"/><text fill="#EAEAEA" font-family="sans-serif" font-size="12" lengthAdjust="spacingAndGlyphs" textLength="159" x="65" y="379.0967">Read sensors (q, omega)</text><rect fill="#2B3045" height="33.9688" rx="12.5" ry="12.5" style="stroke: #CFECE7; stroke-width: 1.5;" width="146" x="71.5" y="426.9268"/><text fill="#EAEAEA" font-family="sans-serif" font-size="12" lengthAdjust="spacingAndGlyphs" textLength="126" x="81.5" y="448.0654">Apply wheel torques</text><rect fill="#2B3045" height="33.9688" rx="12.5" ry="12.5" style="stroke: #CFECE7; stroke-width: 1.5;" width="225" x="32" y="495.8955"/><text fill="#EAEAEA" font-family="sans-serif" font-size="12" lengthAdjust="spacingAndGlyphs" textLength="205" x="42" y="517.0342">MTQ desat when near-saturation</text><polygon fill="#FEFECE" points="144.5,285.958,156.5,297.958,144.5,309.958,132.5,297.958,144.5,285.958" style="stroke: #A80036; stroke-width: 1.5;"/><polygon fill="#FEFECE" points="105,552.3486,184,552.3486,196,564.3486,184,576.3486,105,576.3486,93,564.3486,105,552.3486" style="stroke: #A80036; stroke-width: 1.5;"/><text fill="#EAEAEA" font-family="sans-serif" font-size="11" lengthAdjust="spacingAndGlyphs" textLength="79" x="105" y="568.1567">Window active</text><rect fill="#2B3045" height="395.1406" style="stroke: #5D6A87; stroke-width: 2.0;" width="236" x="295" y="195.6924"/><path d="M459,196.6924 L459,204.9893 L449,214.9893 L295,214.9893 " fill="none" style="stroke: #5D6A87; stroke-width: 2.0;"/><text fill="#CFECE7" font-family="sans-serif" font-size="14" lengthAdjust="spacingAndGlyphs" textLength="154" x="298" y="209.6875">Payload → OBC → DHS</text><rect fill="#2B3045" height="33.9688" rx="12.5" ry="12.5" style="stroke: #CFECE7; stroke-width: 1.5;" width="142" x="330" y="231.9893"/><text fill="#EAEAEA" font-family="sans-serif" font-size="12" lengthAdjust="spacingAndGlyphs" textLength="122" x="340" y="253.1279">Start RF acquisition</text><rect fill="#2B3045" height="33.9688" rx="12.5" ry="12.5" style="stroke: #CFECE7; stroke-width: 1.5;" width="151" x="325.5" y="357.958"/><text fill="#EAEAEA" font-family="sans-serif" font-size="12" lengthAdjust="spacingAndGlyphs" textLength="131" x="335.5" y="379.0967">Receive radio frames</text><rect fill="#2B3045" height="33.9688" rx="12.5" ry="12.5" style="stroke: #CFECE7; stroke-width: 1.5;" width="192" x="305" y="426.9268"/><text fill="#EAEAEA" font-family="sans-serif" font-size="12" lengthAdjust="spacingAndGlyphs" textLength="172" x="315" y="448.0654">CRC + packetize + prioritize</text><rect fill="#2B3045" height="33.9688" rx="12.5" ry="12.5" style="stroke: #CFECE7; stroke-width: 1.5;" width="152" x="325" y="495.8955"/><text fill="#EAEAEA" font-family="sans-serif" font-size="12" lengthAdjust="spacingAndGlyphs" textLength="132" x="335" y="517.0342">Enqueue to TX buffer</text><polygon fill="#FEFECE" points="401,285.958,413,297.958,401,309.958,389,297.958,401,285.958" style="stroke: #A80036; stroke-width: 1.5;"/><polygon fill="#FEFECE" points="361.5,552.3486,440.5,552.3486,452.5,564.3486,440.5,576.3486,361.5,576.3486,349.5,564.3486,361.5,552.3486" style="stroke: #A80036; stroke-width: 1.5;"/><text fill="#EAEAEA" font-family="sans-serif" font-size="11" lengthAdjust="spacingAndGlyphs" textLength="79" x="361.5" y="568.1567">Window active</text><rect fill="#2B3045" height="390.1719" style="stroke: #5D6A87; stroke-width: 2.0;" width="600" x="559" y="198.1768"/><path d="M757,199.1768 L757,207.4736 L747,217.4736 L559,217.4736 " fill="none" style="stroke: #5D6A87; stroke-width: 2.0;"/><text fill="#CFECE7" font-family="sans-serif" font-size="14" lengthAdjust="spacingAndGlyphs" textLength="188" x="562" y="212.1719">RF Link ↔ Sounding Rocket</text><polygon fill="#FEFECE" points="737,291.4736,933,291.4736,945,303.4736,933,315.4736,737,315.4736,725,303.4736,737,291.4736" style="stroke: #A80036; stroke-width: 1.5;"/><text fill="#EAEAEA" font-family="sans-serif" font-size="11" lengthAdjust="spacingAndGlyphs" textLength="196" x="737" y="307.2817">SR visible &amp; link margin &gt; thresh?</text><text fill="#EAEAEA" font-family="sans-serif" font-size="11" lengthAdjust="spacingAndGlyphs" textLength="20" x="705" y="300.8794">yes</text><text fill="#EAEAEA" font-family="sans-serif" font-size="11" lengthAdjust="spacingAndGlyphs" textLength="14" x="945" y="300.8794">no</text><rect fill="#2B3045" height="33.9688" rx="12.5" ry="12.5" style="stroke: #CFECE7; stroke-width: 1.5;" width="148" x="618.5" y="325.4736"/><text fill="#EAEAEA" font-family="sans-serif" font-size="12" lengthAdjust="spacingAndGlyphs" textLength="128" x="628.5" y="346.6123">Pull buffered chunks</text><rect fill="#2B3045" height="33.9688" rx="12.5" ry="12.5" style="stroke: #CFECE7; stroke-width: 1.5;" width="227" x="579" y="394.4424"/><text fill="#EAEAEA" font-family="sans-serif" font-size="12" lengthAdjust="spacingAndGlyphs" textLength="207" x="589" y="415.5811">Transmit to SR; receive ACK/NACK</text><rect fill="#2B3045" height="33.9688" rx="12.5" ry="12.5" style="stroke: #CFECE7; stroke-width: 1.5;" width="226" x="579.5" y="463.4111"/><text fill="#EAEAEA" font-family="sans-serif" font-size="12" lengthAdjust="spacingAndGlyphs" textLength="206" x="589.5" y="484.5498">Requeue NACK; update link stats</text><rect fill="#2B3045" height="33.9688" rx="12.5" ry="12.5" style="stroke: #CFECE7; stroke-width: 1.5;" width="303" x="826" y="325.4736"/><text fill="#EAEAEA" font-family="sans-serif" font-size="12" lengthAdjust="spacingAndGlyphs" textLength="283" x="836" y="346.6123">Idle TX; continue buffering (drop low-pri if full)</text><polygon fill="#FEFECE" points="835,503.3799,847,515.3799,835,527.3799,823,515.3799,835,503.3799" style="stroke: #A80036; stroke-width: 1.5;"/><polygon fill="#FEFECE" points="835,234.4736,847,246.4736,835,258.4736,823,246.4736,835,234.4736" style="stroke: #A80036; stroke-width: 1.5;"/><polygon fill="#FEFECE" points="795.5,549.8643,874.5,549.8643,886.5,561.8643,874.5,573.8643,795.5,573.8643,783.5,561.8643,795.5,549.8643" style="stroke: #A80036; stroke-width: 1.5;"/><text fill="#EAEAEA" font-family="sans-serif" font-size="11" lengthAdjust="spacingAndGlyphs" textLength="79" x="795.5" y="565.6724">Window active</text><rect fill="#000000" height="6" rx="2.5" ry="2.5" style="stroke: #000000; stroke-width: 1.0;" width="1161" x="10" y="610.833"/><rect fill="#2B3045" height="33.9688" rx="12.5" ry="12.5" style="stroke: #CFECE7; stroke-width: 1.5;" width="191" x="490" y="636.833"/><text fill="#EAEAEA" font-family="sans-serif" font-size="12" lengthAdjust="spacingAndGlyphs" textLength="171" x="500" y="657.9717">Stop acquisition; close files</text><rect fill="#2B3045" height="33.9688" rx="12.5" ry="12.5" style="stroke: #CFECE7; stroke-width: 1.5;" width="128" x="521.5" y="690.8018"/><text fill="#EAEAEA" font-family="sans-serif" font-size="12" lengthAdjust="spacingAndGlyphs" textLength="108" x="531.5" y="711.9404">Exit pointing loop</text><rect fill="#2B3045" height="33.9688" rx="12.5" ry="12.5" style="stroke: #CFECE7; stroke-width: 1.5;" width="255" x="458" y="744.7705"/><text fill="#EAEAEA" font-family="sans-serif" font-size="12" lengthAdjust="spacingAndGlyphs" textLength="235" x="468" y="765.9092">Transmit leftovers on next SR contact</text><ellipse cx="585.5" cy="809.7393" fill="#FFFFFF" rx="11" ry="11" style="stroke: #4CAF50; stroke-width: 1.0;"/><ellipse cx="585.5" cy="809.7393" fill="#4CAF50" rx="6" ry="6" style="stroke: #A5D7A7; stroke-width: 1.0;"/><line style="stroke: #CFECE7; stroke-width: 1.5;" x1="585.5" x2="585.5" y1="50.9531" y2="70.9531"/><polygon fill="#CFECE7" points="581.5,60.9531,585.5,70.9531,589.5,60.9531,585.5,64.9531" style="stroke: #CFECE7; stroke-width: 1.0;"/><line style="stroke: #CFECE7; stroke-width: 1.5;" x1="585.5" x2="585.5" y1="104.9219" y2="124.9219"/><polygon fill="#CFECE7" points="581.5,114.9219,585.5,124.9219,589.5,114.9219,585.5,118.9219" style="stroke: #CFECE7; stroke-width: 1.0;"/><line style="stroke: #CFECE7; stroke-width: 1.5;" x1="144.5" x2="144.5" y1="391.9268" y2="426.9268"/><polygon fill="#CFECE7" points="140.5,416.9268,144.5,426.9268,148.5,416.9268,144.5,420.9268" style="stroke: #CFECE7; stroke-width: 1.0;"/><line style="stroke: #CFECE7; stroke-width: 1.5;" x1="144.5" x2="144.5" y1="460.8955" y2="495.8955"/><polygon fill="#CFECE7" points="140.5,485.8955,144.5,495.8955,148.5,485.8955,144.5,489.8955" style="stroke: #CFECE7; stroke-width: 1.0;"/><line style="stroke: #CFECE7; stroke-width: 1.5;" x1="144.5" x2="144.5" y1="309.958" y2="357.958"/><polygon fill="#CFECE7" points="140.5,347.958,144.5,357.958,148.5,347.958,144.5,351.958" style="stroke: #CFECE7; stroke-width: 1.0;"/><line style="stroke: #CFECE7; stroke-width: 1.5;" x1="196" x2="269" y1="564.3486" y2="564.3486"/><polygon fill="#CFECE7" points="265,453.9111,269,443.9111,273,453.9111,269,449.9111" style="stroke: #CFECE7; stroke-width: 1.5;"/><line style="stroke: #CFECE7; stroke-width: 1.5;" x1="269" x2="269" y1="297.958" y2="564.3486"/><line style="stroke: #CFECE7; stroke-width: 1.5;" x1="269" x2="156.5" y1="297.958" y2="297.958"/><polygon fill="#CFECE7" points="166.5,293.958,156.5,297.958,166.5,301.958,162.5,297.958" style="stroke: #CFECE7; stroke-width: 1.0;"/><line style="stroke: #CFECE7; stroke-width: 1.5;" x1="144.5" x2="144.5" y1="529.8643" y2="552.3486"/><polygon fill="#CFECE7" points="140.5,542.3486,144.5,552.3486,148.5,542.3486,144.5,546.3486" style="stroke: #CFECE7; stroke-width: 1.0;"/><line style="stroke: #CFECE7; stroke-width: 1.5;" x1="144.5" x2="144.5" y1="265.958" y2="285.958"/><polygon fill="#CFECE7" points="140.5,275.958,144.5,285.958,148.5,275.958,144.5,279.958" style="stroke: #CFECE7; stroke-width: 1.0;"/><line style="stroke: #CFECE7; stroke-width: 1.5;" x1="401" x2="401" y1="391.9268" y2="426.9268"/><polygon fill="#CFECE7" points="397,416.9268,401,426.9268,405,416.9268,401,420.9268" style="stroke: #CFECE7; stroke-width: 1.0;"/><line style="stroke: #CFECE7; stroke-width: 1.5;" x1="401" x2="401" y1="460.8955" y2="495.8955"/><polygon fill="#CFECE7" points="397,485.8955,401,495.8955,405,485.8955,401,489.8955" style="stroke: #CFECE7; stroke-width: 1.0;"/><line style="stroke: #CFECE7; stroke-width: 1.5;" x1="401" x2="401" y1="309.958" y2="357.958"/><polygon fill="#CFECE7" points="397,347.958,401,357.958,405,347.958,401,351.958" style="stroke: #CFECE7; stroke-width: 1.0;"/><line style="stroke: #CFECE7; stroke-width: 1.5;" x1="452.5" x2="509" y1="564.3486" y2="564.3486"/><polygon fill="#CFECE7" points="505,453.9111,509,443.9111,513,453.9111,509,449.9111" style="stroke: #CFECE7; stroke-width: 1.5;"/><line style="stroke: #CFECE7; stroke-width: 1.5;" x1="509" x2="509" y1="297.958" y2="564.3486"/><line style="stroke: #CFECE7; stroke-width: 1.5;" x1="509" x2="413" y1="297.958" y2="297.958"/><polygon fill="#CFECE7" points="423,293.958,413,297.958,423,301.958,419,297.958" style="stroke: #CFECE7; stroke-width: 1.0;"/><line style="stroke: #CFECE7; stroke-width: 1.5;" x1="401" x2="401" y1="529.8643" y2="552.3486"/><polygon fill="#CFECE7" points="397,542.3486,401,552.3486,405,542.3486,401,546.3486" style="stroke: #CFECE7; stroke-width: 1.0;"/><line style="stroke: #CFECE7; stroke-width: 1.5;" x1="401" x2="401" y1="265.958" y2="285.958"/><polygon fill="#CFECE7" points="397,275.958,401,285.958,405,275.958,401,279.958" style="stroke: #CFECE7; stroke-width: 1.0;"/><line style="stroke: #CFECE7; stroke-width: 1.5;" x1="692.5" x2="692.5" y1="359.4424" y2="394.4424"/><polygon fill="#CFECE7" points="688.5,384.4424,692.5,394.4424,696.5,384.4424,692.5,388.4424" style="stroke: #CFECE7; stroke-width: 1.0;"/><line style="stroke: #CFECE7; stroke-width: 1.5;" x1="692.5" x2="692.5" y1="428.4111" y2="463.4111"/><polygon fill="#CFECE7" points="688.5,453.4111,692.5,463.4111,696.5,453.4111,692.5,457.4111" style="stroke: #CFECE7; stroke-width: 1.0;"/><line style="stroke: #CFECE7; stroke-width: 1.5;" x1="725" x2="692.5" y1="303.4736" y2="303.4736"/><line style="stroke: #CFECE7; stroke-width: 1.5;" x1="692.5" x2="692.5" y1="303.4736" y2="325.4736"/><polygon fill="#CFECE7" points="688.5,315.4736,692.5,325.4736,696.5,315.4736,692.5,319.4736" style="stroke: #CFECE7; stroke-width: 1.0;"/><line style="stroke: #CFECE7; stroke-width: 1.5;" x1="945" x2="977.5" y1="303.4736" y2="303.4736"/><line style="stroke: #CFECE7; stroke-width: 1.5;" x1="977.5" x2="977.5" y1="303.4736" y2="325.4736"/><polygon fill="#CFECE7" points="973.5,315.4736,977.5,325.4736,981.5,315.4736,977.5,319.4736" style="stroke: #CFECE7; stroke-width: 1.0;"/><line style="stroke: #CFECE7; stroke-width: 1.5;" x1="692.5" x2="692.5" y1="497.3799" y2="515.3799"/><line style="stroke: #CFECE7; stroke-width: 1.5;" x1="692.5" x2="823" y1="515.3799" y2="515.3799"/><polygon fill="#CFECE7" points="813,511.3799,823,515.3799,813,519.3799,817,515.3799" style="stroke: #CFECE7; stroke-width: 1.0;"/><line style="stroke: #CFECE7; stroke-width: 1.5;" x1="977.5" x2="977.5" y1="359.4424" y2="515.3799"/><line style="stroke: #CFECE7; stroke-width: 1.5;" x1="977.5" x2="847" y1="515.3799" y2="515.3799"/><polygon fill="#CFECE7" points="857,511.3799,847,515.3799,857,519.3799,853,515.3799" style="stroke: #CFECE7; stroke-width: 1.0;"/><line style="stroke: #CFECE7; stroke-width: 1.5;" x1="835" x2="835" y1="258.4736" y2="291.4736"/><polygon fill="#CFECE7" points="831,281.4736,835,291.4736,839,281.4736,835,285.4736" style="stroke: #CFECE7; stroke-width: 1.0;"/><line style="stroke: #CFECE7; stroke-width: 1.5;" x1="886.5" x2="1143" y1="561.8643" y2="561.8643"/><polygon fill="#CFECE7" points="1139,419.4268,1143,409.4268,1147,419.4268,1143,415.4268" style="stroke: #CFECE7; stroke-width: 1.5;"/><line style="stroke: #CFECE7; stroke-width: 1.5;" x1="1143" x2="1143" y1="246.4736" y2="561.8643"/><line style="stroke: #CFECE7; stroke-width: 1.5;" x1="1143" x2="847" y1="246.4736" y2="246.4736"/><polygon fill="#CFECE7" points="857,242.4736,847,246.4736,857,250.4736,853,246.4736" style="stroke: #CFECE7; stroke-width: 1.0;"/><line style="stroke: #CFECE7; stroke-width: 1.5;" x1="835" x2="835" y1="527.3799" y2="549.8643"/><polygon fill="#CFECE7" points="831,539.8643,835,549.8643,839,539.8643,835,543.8643" style="stroke: #CFECE7; stroke-width: 1.0;"/><line style="stroke: #CFECE7; stroke-width: 1.5;" x1="144.5" x2="144.5" y1="184.8906" y2="231.9893"/><polygon fill="#CFECE7" points="140.5,221.9893,144.5,231.9893,148.5,221.9893,144.5,225.9893" style="stroke: #CFECE7; stroke-width: 1.0;"/><line style="stroke: #CFECE7; stroke-width: 1.5;" x1="401" x2="401" y1="184.8906" y2="231.9893"/><polygon fill="#CFECE7" points="397,221.9893,401,231.9893,405,221.9893,401,225.9893" style="stroke: #CFECE7; stroke-width: 1.0;"/><line style="stroke: #CFECE7; stroke-width: 1.5;" x1="835" x2="835" y1="184.8906" y2="234.4736"/><polygon fill="#CFECE7" points="831,224.4736,835,234.4736,839,224.4736,835,228.4736" style="stroke: #CFECE7; stroke-width: 1.0;"/><line style="stroke: #CFECE7; stroke-width: 1.5;" x1="144.5" x2="144.5" y1="576.3486" y2="610.833"/><polygon fill="#CFECE7" points="140.5,600.833,144.5,610.833,148.5,600.833,144.5,604.833" style="stroke: #CFECE7; stroke-width: 1.0;"/><line style="stroke: #CFECE7; stroke-width: 1.5;" x1="401" x2="401" y1="576.3486" y2="610.833"/><polygon fill="#CFECE7" points="397,600.833,401,610.833,405,600.833,401,604.833" style="stroke: #CFECE7; stroke-width: 1.0;"/><line style="stroke: #CFECE7; stroke-width: 1.5;" x1="835" x2="835" y1="573.8643" y2="610.833"/><polygon fill="#CFECE7" points="831,600.833,835,610.833,839,600.833,835,604.833" style="stroke: #CFECE7; stroke-width: 1.0;"/><line style="stroke: #CFECE7; stroke-width: 1.5;" x1="585.5" x2="585.5" y1="158.8906" y2="178.8906"/><polygon fill="#CFECE7" points="581.5,168.8906,585.5,178.8906,589.5,168.8906,585.5,172.8906" style="stroke: #CFECE7; stroke-width: 1.0;"/><line style="stroke: #CFECE7; stroke-width: 1.5;" x1="585.5" x2="585.5" y1="616.833" y2="636.833"/><polygon fill="#CFECE7" points="581.5,626.833,585.5,636.833,589.5,626.833,585.5,630.833" style="stroke: #CFECE7; stroke-width: 1.0;"/><line style="stroke: #CFECE7; stroke-width: 1.5;" x1="585.5" x2="585.5" y1="670.8018" y2="690.8018"/><polygon fill="#CFECE7" points="581.5,680.8018,585.5,690.8018,589.5,680.8018,585.5,684.8018" style="stroke: #CFECE7; stroke-width: 1.0;"/><line style="stroke: #CFECE7; stroke-width: 1.5;" x1="585.5" x2="585.5" y1="724.7705" y2="744.7705"/><polygon fill="#CFECE7" points="581.5,734.7705,585.5,744.7705,589.5,734.7705,585.5,738.7705" style="stroke: #CFECE7; stroke-width: 1.0;"/><line style="stroke: #CFECE7; stroke-width: 1.5;" x1="585.5" x2="585.5" y1="778.7393" y2="798.7393"/><polygon fill="#CFECE7" points="581.5,788.7393,585.5,798.7393,589.5,788.7393,585.5,792.7393" style="stroke: #CFECE7; stroke-width: 1.0;"/><!--MD5=[51141596e27a41e28367646ad9403dd3]
@startuml
title <color:#CFECE7>Activity - Track Target & Transmit to Sounding Rocket in Parallel</color>
skinparam shadowing false

skinparam backgroundColor #1E2230
skinparam defaultFontColor #EAEAEA

skinparam activity {
  StartColor #4CAF50
  EndColor #4CAF50
  BackgroundColor #2B3045
  BorderColor #CFECE7
  FontColor #EAEAEA
}
skinparam partition {
  BackgroundColor #2B3045
  BorderColor #5D6A87
  FontColor #CFECE7
}
skinparam diamond {
  BackgroundColor #2B3045
  BorderColor #CFECE7
  FontColor #EAEAEA
}
skinparam arrow {
  Color #CFECE7
}
skinparam note {
  BackgroundColor #5D6A87
  BorderColor #CFECE7
  FontColor #EAEAEA
}

start
:Enter science window;
:Configure RF link (PLL, power, coding, Doppler);

fork
  partition "ADCS" {
    :Fine pointing loop (10-20 Hz);
    repeat
      :Read sensors (q, omega);
      :Apply wheel torques;
      :MTQ desat when near-saturation;
    repeat while (Window active)
  }
fork again
  partition "Payload → OBC → DHS" {
    :Start RF acquisition;
    repeat
      :Receive radio frames;
      :CRC + packetize + prioritize;
      :Enqueue to TX buffer;
    repeat while (Window active)
  }
fork again
  partition "RF Link ↔ Sounding Rocket" {
    repeat
      if (SR visible & link margin > thresh?) then (yes)
        :Pull buffered chunks;
        :Transmit to SR; receive ACK/NACK;
        :Requeue NACK; update link stats;
      else (no)
        :Idle TX; continue buffering (drop low-pri if full);
      endif
    repeat while (Window active)
  }
end fork

:Stop acquisition; close files;
:Exit pointing loop;
:Transmit leftovers on next SR contact;
stop
@enduml

PlantUML version 1.2020.02(Sun Mar 01 04:22:07 CST 2020)
(GPL source distribution)
Java Runtime: OpenJDK Runtime Environment
JVM: OpenJDK 64-Bit Server VM
Java Version: 11.0.28+6-post-Ubuntu-1ubuntu122.04.1
Operating System: Linux
Default Encoding: UTF-8
Language: en
Country: null
--></g></svg>