<?xml version="1.0" encoding="UTF-8" standalone="no"?><svg xmlns="http://www.w3.org/2000/svg" xmlns:xlink="http://www.w3.org/1999/xlink" contentScriptType="application/ecmascript" contentStyleType="text/css" height="839px" preserveAspectRatio="none" style="width:1190px;height:839px;background:#1E2230;" version="1.1" viewBox="0 0 1190 839" width="1190px" zoomAndPan="magnify"><defs/><g><text fill="#CFECE7" font-family="sans-serif" font-size="18" lengthAdjust="spacingAndGlyphs" textLength="461" x="360.25" y="26.708">Parallel Pointing + Streaming (Local Sub-GHz Wi-Fi)</text><rect fill="#1E2230" height="402.3359" style="stroke: #5D6A87; stroke-width: 2.0;" width="1155.5" x="13" y="262.2109"/><rect fill="#1E2230" height="75.3984" style="stroke: #5D6A87; stroke-width: 2.0;" width="279" x="187" y="286.3438"/><rect fill="#1E2230" height="295.8047" style="stroke: none; stroke-width: 1.0;" width="1155.5" x="13" y="368.7422"/><rect fill="#1E2230" height="267" style="stroke: #5D6A87; stroke-width: 2.0;" width="1135.5" x="23" y="390.5469"/><rect fill="#1E2230" height="177.6016" style="stroke: #5D6A87; stroke-width: 2.0;" width="1115.5" x="33" y="472.9453"/><rect fill="#1E2230" height="43.9375" style="stroke: none; stroke-width: 1.0;" width="1115.5" x="33" y="606.6094"/><line style="stroke: #CFECE7; stroke-width: 1.0; stroke-dasharray: 5.0,5.0;" x1="65" x2="65" y1="85.5469" y2="782.9453"/><line style="stroke: #CFECE7; stroke-width: 1.0; stroke-dasharray: 5.0,5.0;" x1="223" x2="223" y1="85.5469" y2="782.9453"/><line style="stroke: #CFECE7; stroke-width: 1.0; stroke-dasharray: 5.0,5.0;" x1="322" x2="322" y1="85.5469" y2="782.9453"/><line style="stroke: #CFECE7; stroke-width: 1.0; stroke-dasharray: 5.0,5.0;" x1="408" x2="408" y1="85.5469" y2="782.9453"/><line style="stroke: #CFECE7; stroke-width: 1.0; stroke-dasharray: 5.0,5.0;" x1="513" x2="513" y1="85.5469" y2="782.9453"/><line style="stroke: #CFECE7; stroke-width: 1.0; stroke-dasharray: 5.0,5.0;" x1="635" x2="635" y1="85.5469" y2="782.9453"/><line style="stroke: #CFECE7; stroke-width: 1.0; stroke-dasharray: 5.0,5.0;" x1="901" x2="901" y1="85.5469" y2="782.9453"/><line style="stroke: #CFECE7; stroke-width: 1.0; stroke-dasharray: 5.0,5.0;" x1="1071.5" x2="1071.5" y1="85.5469" y2="782.9453"/><rect fill="#2B3045" height="30.2969" style="stroke: #CFECE7; stroke-width: 1.5;" width="45" x="43" y="54.25"/><text fill="#EAEAEA" font-family="sans-serif" font-size="14" lengthAdjust="spacingAndGlyphs" textLength="31" x="50" y="74.2451">OBC</text><rect fill="#2B3045" height="30.2969" style="stroke: #CFECE7; stroke-width: 1.5;" width="45" x="43" y="781.9453"/><text fill="#EAEAEA" font-family="sans-serif" font-size="14" lengthAdjust="spacingAndGlyphs" textLength="31" x="50" y="801.9404">OBC</text><rect fill="#2B3045" height="30.2969" style="stroke: #CFECE7; stroke-width: 1.5;" width="53" x="197" y="54.25"/><text fill="#EAEAEA" font-family="sans-serif" font-size="14" lengthAdjust="spacingAndGlyphs" textLength="39" x="204" y="74.2451">ADCS</text><rect fill="#2B3045" height="30.2969" style="stroke: #CFECE7; stroke-width: 1.5;" width="53" x="197" y="781.9453"/><text fill="#EAEAEA" font-family="sans-serif" font-size="14" lengthAdjust="spacingAndGlyphs" textLength="39" x="204" y="801.9404">ADCS</text><rect fill="#2B3045" height="30.2969" style="stroke: #CFECE7; stroke-width: 1.5;" width="71" x="287" y="54.25"/><text fill="#EAEAEA" font-family="sans-serif" font-size="14" lengthAdjust="spacingAndGlyphs" textLength="57" x="294" y="74.2451">Sensors</text><rect fill="#2B3045" height="30.2969" style="stroke: #CFECE7; stroke-width: 1.5;" width="71" x="287" y="781.9453"/><text fill="#EAEAEA" font-family="sans-serif" font-size="14" lengthAdjust="spacingAndGlyphs" textLength="57" x="294" y="801.9404">Sensors</text><rect fill="#2B3045" height="30.2969" style="stroke: #CFECE7; stroke-width: 1.5;" width="80" x="368" y="54.25"/><text fill="#EAEAEA" font-family="sans-serif" font-size="14" lengthAdjust="spacingAndGlyphs" textLength="66" x="375" y="74.2451">Actuators</text><rect fill="#2B3045" height="30.2969" style="stroke: #CFECE7; stroke-width: 1.5;" width="80" x="368" y="781.9453"/><text fill="#EAEAEA" font-family="sans-serif" font-size="14" lengthAdjust="spacingAndGlyphs" textLength="66" x="375" y="801.9404">Actuators</text><rect fill="#2B3045" height="30.2969" style="stroke: #CFECE7; stroke-width: 1.5;" width="110" x="458" y="54.25"/><text fill="#EAEAEA" font-family="sans-serif" font-size="14" lengthAdjust="spacingAndGlyphs" textLength="96" x="465" y="74.2451">Radio Payload</text><rect fill="#2B3045" height="30.2969" style="stroke: #CFECE7; stroke-width: 1.5;" width="110" x="458" y="781.9453"/><text fill="#EAEAEA" font-family="sans-serif" font-size="14" lengthAdjust="spacingAndGlyphs" textLength="96" x="465" y="801.9404">Radio Payload</text><rect fill="#2B3045" height="30.2969" style="stroke: #CFECE7; stroke-width: 1.5;" width="114" x="578" y="54.25"/><text fill="#EAEAEA" font-family="sans-serif" font-size="14" lengthAdjust="spacingAndGlyphs" textLength="100" x="585" y="74.2451">Storage/Buffer</text><rect fill="#2B3045" height="30.2969" style="stroke: #CFECE7; stroke-width: 1.5;" width="114" x="578" y="781.9453"/><text fill="#EAEAEA" font-family="sans-serif" font-size="14" lengthAdjust="spacingAndGlyphs" textLength="100" x="585" y="801.9404">Storage/Buffer</text><rect fill="#2B3045" height="46.5938" style="stroke: #CFECE7; stroke-width: 1.5;" width="114" x="844" y="37.9531"/><text fill="#EAEAEA" font-family="sans-serif" font-size="14" lengthAdjust="spacingAndGlyphs" textLength="100" x="851" y="57.9482">Local Sub-GHz</text><text fill="#EAEAEA" font-family="sans-serif" font-size="14" lengthAdjust="spacingAndGlyphs" textLength="63" x="869.5" y="74.2451">Wi-Fi Link</text><rect fill="#2B3045" height="46.5938" style="stroke: #CFECE7; stroke-width: 1.5;" width="114" x="844" y="781.9453"/><text fill="#EAEAEA" font-family="sans-serif" font-size="14" lengthAdjust="spacingAndGlyphs" textLength="100" x="851" y="801.9404">Local Sub-GHz</text><text fill="#EAEAEA" font-family="sans-serif" font-size="14" lengthAdjust="spacingAndGlyphs" textLength="63" x="869.5" y="818.2373">Wi-Fi Link</text><rect fill="#2B3045" height="46.5938" style="stroke: #CFECE7; stroke-width: 1.5;" width="133" x="1005.5" y="37.9531"/><text fill="#EAEAEA" font-family="sans-serif" font-size="14" lengthAdjust="spacingAndGlyphs" textLength="119" x="1012.5" y="57.9482">Sounding Rocket</text><text fill="#EAEAEA" font-family="sans-serif" font-size="14" lengthAdjust="spacingAndGlyphs" textLength="112" x="1016" y="74.2451">(Relay/Receiver)</text><rect fill="#2B3045" height="46.5938" style="stroke: #CFECE7; stroke-width: 1.5;" width="133" x="1005.5" y="781.9453"/><text fill="#EAEAEA" font-family="sans-serif" font-size="14" lengthAdjust="spacingAndGlyphs" textLength="119" x="1012.5" y="801.9404">Sounding Rocket</text><text fill="#EAEAEA" font-family="sans-serif" font-size="14" lengthAdjust="spacingAndGlyphs" textLength="112" x="1016" y="818.2373">(Relay/Receiver)</text><rect fill="#2B3045" height="3" style="stroke: #2B3045; stroke-width: 1.0;" width="1175.5" x="3" y="116.1133"/><line style="stroke: #5D6A87; stroke-width: 1.0;" x1="3" x2="1178.5" y1="116.1133" y2="116.1133"/><line style="stroke: #5D6A87; stroke-width: 1.0;" x1="3" x2="1178.5" y1="119.1133" y2="119.1133"/><rect fill="#2B3045" height="23.1328" style="stroke: #5D6A87; stroke-width: 2.0;" width="176" x="502.75" y="105.5469"/><text fill="#CFECE7" font-family="sans-serif" font-size="13" font-weight="bold" lengthAdjust="spacingAndGlyphs" textLength="157" x="508.75" y="121.6138">Start science window</text><polygon fill="#CFECE7" points="211.5,155.8125,221.5,159.8125,211.5,163.8125,215.5,159.8125" style="stroke: #CFECE7; stroke-width: 1.0;"/><line style="stroke: #CFECE7; stroke-width: 1.0;" x1="65.5" x2="217.5" y1="159.8125" y2="159.8125"/><text fill="#EAEAEA" font-family="sans-serif" font-size="13" lengthAdjust="spacingAndGlyphs" textLength="134" x="72.5" y="154.7466">Begin target tracking</text><polygon fill="#CFECE7" points="501,184.9453,511,188.9453,501,192.9453,505,188.9453" style="stroke: #CFECE7; stroke-width: 1.0;"/><line style="stroke: #CFECE7; stroke-width: 1.0;" x1="65.5" x2="507" y1="188.9453" y2="188.9453"/><text fill="#EAEAEA" font-family="sans-serif" font-size="13" lengthAdjust="spacingAndGlyphs" textLength="183" x="72.5" y="183.8794">Start acquisition (IQ/spectra)</text><polygon fill="#CFECE7" points="889,214.0781,899,218.0781,889,222.0781,893,218.0781" style="stroke: #CFECE7; stroke-width: 1.0;"/><line style="stroke: #CFECE7; stroke-width: 1.0;" x1="65.5" x2="895" y1="218.0781" y2="218.0781"/><text fill="#EAEAEA" font-family="sans-serif" font-size="13" lengthAdjust="spacingAndGlyphs" textLength="221" x="72.5" y="213.0122">Configure basic link (SSID/ch, rate)</text><polygon fill="#CFECE7" points="1060,243.2109,1070,247.2109,1060,251.2109,1064,247.2109" style="stroke: #CFECE7; stroke-width: 1.0;"/><line style="stroke: #CFECE7; stroke-width: 1.0;" x1="65.5" x2="1066" y1="247.2109" y2="247.2109"/><text fill="#EAEAEA" font-family="sans-serif" font-size="13" lengthAdjust="spacingAndGlyphs" textLength="66" x="72.5" y="242.145">Link check</text><path d="M13,262.2109 L83,262.2109 L83,269.2109 L73,279.2109 L13,279.2109 L13,262.2109 " fill="#2B3045" style="stroke: #5D6A87; stroke-width: 1.0;"/><rect fill="none" height="402.3359" style="stroke: #5D6A87; stroke-width: 2.0;" width="1155.5" x="13" y="262.2109"/><text fill="#CFECE7" font-family="sans-serif" font-size="13" font-weight="bold" lengthAdjust="spacingAndGlyphs" textLength="25" x="28" y="275.2778">par</text><text fill="#EAEAEA" font-family="sans-serif" font-size="11" font-weight="bold" lengthAdjust="spacingAndGlyphs" textLength="144" x="98" y="274.4214">[Pointing control loop]</text><path d="M187,286.3438 L264,286.3438 L264,293.3438 L254,303.3438 L187,303.3438 L187,286.3438 " fill="#2B3045" style="stroke: #5D6A87; stroke-width: 1.0;"/><rect fill="none" height="75.3984" style="stroke: #5D6A87; stroke-width: 2.0;" width="279" x="187" y="286.3438"/><text fill="#CFECE7" font-family="sans-serif" font-size="13" font-weight="bold" lengthAdjust="spacingAndGlyphs" textLength="32" x="202" y="299.4106">loop</text><text fill="#EAEAEA" font-family="sans-serif" font-size="11" font-weight="bold" lengthAdjust="spacingAndGlyphs" textLength="182" x="279" y="298.5542">[10-20 Hz until window end]</text><polygon fill="#CFECE7" points="234.5,320.6094,224.5,324.6094,234.5,328.6094,230.5,324.6094" style="stroke: #CFECE7; stroke-width: 1.0;"/><line style="stroke: #CFECE7; stroke-width: 1.0; stroke-dasharray: 2.0,2.0;" x1="228.5" x2="321.5" y1="324.6094" y2="324.6094"/><text fill="#EAEAEA" font-family="sans-serif" font-size="13" lengthAdjust="spacingAndGlyphs" textLength="75" x="240.5" y="319.5435">q, ω, status</text><polygon fill="#CFECE7" points="396,349.7422,406,353.7422,396,357.7422,400,353.7422" style="stroke: #CFECE7; stroke-width: 1.0;"/><line style="stroke: #CFECE7; stroke-width: 1.0;" x1="223.5" x2="402" y1="353.7422" y2="353.7422"/><text fill="#EAEAEA" font-family="sans-serif" font-size="13" lengthAdjust="spacingAndGlyphs" textLength="91" x="230.5" y="348.6763">Wheel torques</text><line style="stroke: #5D6A87; stroke-width: 1.0; stroke-dasharray: 2.0,2.0;" x1="13" x2="1168.5" y1="369.7422" y2="369.7422"/><text fill="#EAEAEA" font-family="sans-serif" font-size="11" font-weight="bold" lengthAdjust="spacingAndGlyphs" textLength="149" x="18" y="379.9526">[Science data pipeline]</text><path d="M23,390.5469 L100,390.5469 L100,397.5469 L90,407.5469 L23,407.5469 L23,390.5469 " fill="#2B3045" style="stroke: #5D6A87; stroke-width: 1.0;"/><rect fill="none" height="267" style="stroke: #5D6A87; stroke-width: 2.0;" width="1135.5" x="23" y="390.5469"/><text fill="#CFECE7" font-family="sans-serif" font-size="13" font-weight="bold" lengthAdjust="spacingAndGlyphs" textLength="32" x="38" y="403.6138">loop</text><text fill="#EAEAEA" font-family="sans-serif" font-size="11" font-weight="bold" lengthAdjust="spacingAndGlyphs" textLength="81" x="115" y="402.7573">[continuous]</text><polygon fill="#CFECE7" points="76.5,424.8125,66.5,428.8125,76.5,432.8125,72.5,428.8125" style="stroke: #CFECE7; stroke-width: 1.0;"/><line style="stroke: #CFECE7; stroke-width: 1.0; stroke-dasharray: 2.0,2.0;" x1="70.5" x2="512" y1="428.8125" y2="428.8125"/><text fill="#EAEAEA" font-family="sans-serif" font-size="13" lengthAdjust="spacingAndGlyphs" textLength="117" x="82.5" y="423.7466">Radio data frames</text><polygon fill="#CFECE7" points="623,453.9453,633,457.9453,623,461.9453,627,457.9453" style="stroke: #CFECE7; stroke-width: 1.0;"/><line style="stroke: #CFECE7; stroke-width: 1.0;" x1="65.5" x2="629" y1="457.9453" y2="457.9453"/><text fill="#EAEAEA" font-family="sans-serif" font-size="13" lengthAdjust="spacingAndGlyphs" textLength="203" x="72.5" y="452.8794">Buffer + CRC + chunk + priority</text><path d="M33,472.9453 L97,472.9453 L97,479.9453 L87,489.9453 L33,489.9453 L33,472.9453 " fill="#2B3045" style="stroke: #5D6A87; stroke-width: 1.0;"/><rect fill="none" height="177.6016" style="stroke: #5D6A87; stroke-width: 2.0;" width="1115.5" x="33" y="472.9453"/><text fill="#CFECE7" font-family="sans-serif" font-size="13" font-weight="bold" lengthAdjust="spacingAndGlyphs" textLength="19" x="48" y="486.0122">alt</text><text fill="#EAEAEA" font-family="sans-serif" font-size="11" font-weight="bold" lengthAdjust="spacingAndGlyphs" textLength="140" x="112" y="485.1558">[SR in view &amp; link OK]</text><polygon fill="#CFECE7" points="889,507.2109,899,511.2109,889,515.2109,893,511.2109" style="stroke: #CFECE7; stroke-width: 1.0;"/><line style="stroke: #CFECE7; stroke-width: 1.0;" x1="635" x2="895" y1="511.2109" y2="511.2109"/><text fill="#EAEAEA" font-family="sans-serif" font-size="13" lengthAdjust="spacingAndGlyphs" textLength="242" x="642" y="506.145">Dequeue chunks (rate-limit if needed)</text><polygon fill="#CFECE7" points="1060,536.3438,1070,540.3438,1060,544.3438,1064,540.3438" style="stroke: #CFECE7; stroke-width: 1.0;"/><line style="stroke: #CFECE7; stroke-width: 1.0; stroke-dasharray: 2.0,2.0;" x1="901" x2="1066" y1="540.3438" y2="540.3438"/><text fill="#EAEAEA" font-family="sans-serif" font-size="13" lengthAdjust="spacingAndGlyphs" textLength="137" x="908" y="535.2778">Stream science + TM</text><polygon fill="#CFECE7" points="912,565.4766,902,569.4766,912,573.4766,908,569.4766" style="stroke: #CFECE7; stroke-width: 1.0;"/><line style="stroke: #CFECE7; stroke-width: 1.0; stroke-dasharray: 2.0,2.0;" x1="906" x2="1071" y1="569.4766" y2="569.4766"/><text fill="#EAEAEA" font-family="sans-serif" font-size="13" lengthAdjust="spacingAndGlyphs" textLength="147" x="918" y="564.4106">ACK / NACK / rate hints</text><polygon fill="#CFECE7" points="646,594.6094,636,598.6094,646,602.6094,642,598.6094" style="stroke: #CFECE7; stroke-width: 1.0;"/><line style="stroke: #CFECE7; stroke-width: 1.0;" x1="640" x2="900" y1="598.6094" y2="598.6094"/><text fill="#EAEAEA" font-family="sans-serif" font-size="13" lengthAdjust="spacingAndGlyphs" textLength="166" x="652" y="593.5435">Re-queue NACKed chunks</text><line style="stroke: #5D6A87; stroke-width: 1.0; stroke-dasharray: 2.0,2.0;" x1="33" x2="1148.5" y1="607.6094" y2="607.6094"/><text fill="#EAEAEA" font-family="sans-serif" font-size="11" font-weight="bold" lengthAdjust="spacingAndGlyphs" textLength="151" x="38" y="617.8198">[SR occluded / link bad]</text><polygon fill="#CFECE7" points="623,638.5469,633,642.5469,623,646.5469,627,642.5469" style="stroke: #CFECE7; stroke-width: 1.0;"/><line style="stroke: #CFECE7; stroke-width: 1.0;" x1="65.5" x2="629" y1="642.5469" y2="642.5469"/><text fill="#EAEAEA" font-family="sans-serif" font-size="13" lengthAdjust="spacingAndGlyphs" textLength="315" x="72.5" y="637.481">Keep in ring buffer (QoS; drop oldest low-pri if full)</text><rect fill="#2B3045" height="3" style="stroke: #2B3045; stroke-width: 1.0;" width="1175.5" x="3" y="692.1133"/><line style="stroke: #5D6A87; stroke-width: 1.0;" x1="3" x2="1178.5" y1="692.1133" y2="692.1133"/><line style="stroke: #5D6A87; stroke-width: 1.0;" x1="3" x2="1178.5" y1="695.1133" y2="695.1133"/><rect fill="#2B3045" height="23.1328" style="stroke: #5D6A87; stroke-width: 2.0;" width="110" x="535.75" y="681.5469"/><text fill="#CFECE7" font-family="sans-serif" font-size="13" font-weight="bold" lengthAdjust="spacingAndGlyphs" textLength="91" x="541.75" y="697.6138">Window end</text><polygon fill="#CFECE7" points="501,731.8125,511,735.8125,501,739.8125,505,735.8125" style="stroke: #CFECE7; stroke-width: 1.0;"/><line style="stroke: #CFECE7; stroke-width: 1.0;" x1="65.5" x2="507" y1="735.8125" y2="735.8125"/><text fill="#EAEAEA" font-family="sans-serif" font-size="13" lengthAdjust="spacingAndGlyphs" textLength="102" x="72.5" y="730.7466">Stop acquisition</text><polygon fill="#CFECE7" points="211.5,760.9453,221.5,764.9453,211.5,768.9453,215.5,764.9453" style="stroke: #CFECE7; stroke-width: 1.0;"/><line style="stroke: #CFECE7; stroke-width: 1.0;" x1="65.5" x2="217.5" y1="764.9453" y2="764.9453"/><text fill="#EAEAEA" font-family="sans-serif" font-size="13" lengthAdjust="spacingAndGlyphs" textLength="78" x="72.5" y="759.8794">Exit tracking</text><!--MD5=[f8b84c31c08b8d880aa030057f15762a]
@startuml
title <color:#CFECE7>Parallel Pointing + Streaming (Local Sub-GHz Wi-Fi)</color>

skinparam shadowing false
skinparam backgroundColor #1E2230
skinparam defaultFontColor #EAEAEA

skinparam sequence {
  ArrowColor #CFECE7
  LifeLineBorderColor #CFECE7
  LifeLineBackgroundColor #5D6A87
  ParticipantBorderColor #CFECE7
  ParticipantBackgroundColor #2B3045
  ParticipantFontColor #EAEAEA
  GroupBorderColor #5D6A87
  GroupBackgroundColor #2B3045
  GroupHeaderFontColor #CFECE7
  DividerBackgroundColor #2B3045
  DividerBorderColor     #5D6A87
  DividerFontColor       #CFECE7
}

skinparam note {
  BackgroundColor #5D6A87
  BorderColor #CFECE7
  FontColor #EAEAEA
}

participant OBC
participant ADCS
participant SNS as "Sensors"
participant ACT as "Actuators"
participant PAY as "Radio Payload"
participant DHS as "Storage/Buffer"
participant RF  as "Local Sub-GHz\nWi-Fi Link"
participant SR  as "Sounding Rocket\n(Relay/Receiver)"

== Start science window ==
OBC -> ADCS : Begin target tracking
OBC -> PAY  : Start acquisition (IQ/spectra)
OBC -> RF   : Configure basic link (SSID/ch, rate)
OBC -> SR   : Link check

par Pointing control loop
  loop 10-20 Hz until window end
    SNS - -> ADCS : q, ω, status
    ADCS -> ACT  : Wheel torques
  end
else Science data pipeline
  loop continuous
    PAY - -> OBC : Radio data frames
    OBC -> DHS  : Buffer + CRC + chunk + priority
    alt SR in view & link OK
      DHS -> RF : Dequeue chunks (rate-limit if needed)
      RF  - -> SR : Stream science + TM
      SR  - -> RF : ACK / NACK / rate hints
      RF  -> DHS : Re-queue NACKed chunks
    else SR occluded / link bad
      OBC -> DHS : Keep in ring buffer (QoS; drop oldest low-pri if full)
    end
  end
end

== Window end ==
OBC -> PAY : Stop acquisition
OBC -> ADCS: Exit tracking
note over DHS,RF
end note
@enduml

PlantUML version 1.2020.02(Sun Mar 01 04:22:07 CST 2020)
(GPL source distribution)
Java Runtime: OpenJDK Runtime Environment
JVM: OpenJDK 64-Bit Server VM
Java Version: 11.0.28+6-post-Ubuntu-1ubuntu122.04.1
Operating System: Linux
Default Encoding: UTF-8
Language: en
Country: null
--></g></svg>